<?xml version="1.0" encoding="UTF-8"?>
<svg width="1878.6" height="998.37" style="isolation:isolate" viewBox="0 0 1878.609 998.374" xmlns="http://www.w3.org/2000/svg">
<defs>
<clipPath id="a">
<rect width="1878.6" height="998.37"/>
</clipPath>
</defs>
<g clip-path="url(#a)">
<rect width="1878.6" height="998.37" fill="#286cfd"/>
<g fill="#fff" opacity=".1" style="mix-blend-mode:linear_light">
<path d="m306.12 798.76c33.889 2.451 68.615-9.265 94.499-35.149l159.64-159.64c60.223-60.223 91.302-47.39 109.49-29.199l53.16 53.16 0.953 0.952c47.288 47.289 124.09 47.289 171.38 0l159.64-159.64c60.223-60.223 91.303-47.39 109.49-29.199l53.16 53.16 0.952 0.952c47.289 47.289 124.09 47.289 171.38 0l159.64-159.64c60.223-60.223 91.303-47.39 109.49-29.199l20.312-20.312s-35.07-35.069-53.16-53.16l-0.952-0.952c-47.289-47.288-124.09-47.288-171.38 0l-159.64 159.64c-59.362 59.362-88.809 49.882-109.49 29.198 0 0-35.07-35.069-53.16-53.16l-0.952-0.952c-47.289-47.288-124.09-47.288-171.38 0l-159.64 159.64c-59.362 59.362-88.81 49.882-109.49 29.198l-53.16-53.16-0.952-0.952c-47.289-47.288-124.09-47.288-171.38 0l-159.64 159.64c-51.875 51.875-80.906 51.179-101.21 36.375l102.4 102.4z"/>
<path d="m505.41 998.06c33.889 2.451 68.615-9.265 94.498-35.149l159.64-159.64c60.223-60.223 91.303-47.389 109.49-29.198l53.16 53.16 0.952 0.952c47.289 47.289 124.09 47.289 171.38 0l159.64-159.64c60.223-60.223 91.302-47.389 109.49-29.198l53.16 53.16 0.953 0.952c47.288 47.289 124.09 47.289 171.38 0l159.64-159.64c60.223-60.223 91.303-47.389 109.49-29.198l20.312-20.312-53.16-53.16-0.953-0.952c-47.288-47.289-124.09-47.289-171.38 0l-159.64 159.64c-59.362 59.362-88.81 49.882-109.49 29.198l-53.16-53.16-0.952-0.952c-47.289-47.289-124.09-47.289-171.38 0l-159.64 159.64c-59.363 59.362-88.81 49.882-109.49 29.198l-53.16-53.16-0.952-0.952c-47.289-47.289-124.09-47.289-171.38 0l-159.64 159.64c-51.875 51.875-80.905 51.178-101.21 36.374l102.4 102.4z"/>
<path d="m109.48 603.23c34.269 2.82 69.513-8.865 95.703-35.055l159.64-159.64c60.223-60.223 91.303-47.389 109.49-29.198l53.16 53.16 0.952 0.952c47.288 47.288 124.09 47.288 171.38 0l159.64-159.64c60.223-60.223 91.303-47.389 109.49-29.198 0 0 35.07 35.069 53.16 53.16l0.952 0.952c47.289 47.288 124.09 47.288 171.38 0l159.64-159.64c60.223-60.223 91.303-47.389 109.49-29.198l20.312-20.312s-35.069-35.07-53.16-53.16l-0.952-0.952c-47.288-47.289-124.09-47.289-171.38-1e-3l-159.64 159.64c-59.363 59.363-88.81 49.883-109.49 29.199l-53.16-53.16-0.952-0.953c-47.289-47.288-124.09-47.288-171.38 1e-3l-159.64 159.64c-59.362 59.363-88.81 49.883-109.49 29.199 0 0-35.069-35.07-53.16-53.16l-0.952-0.952c-47.288-47.289-124.09-47.289-171.38 0l-159.64 159.64c-59.362 59.363-88.81 49.883-109.49 29.199l109.48 109.48z"/>
</g>
<path d="m1597.3 704.81c-9.291 10.74-23.017 17.54-38.316 17.54h-94.361c-35.597 0-40.989 12.979-40.989 23.731v31.422 0.563c0 27.952-22.699 50.651-50.651 50.651h-94.36c-35.597 0-40.99 12.978-40.99 23.731v31.422 0.563c0 27.952-22.699 50.651-50.651 50.651h-94.36c-35.597 0-40.99 12.978-40.99 23.73h-12.006v-31.422-0.563c0-27.951 22.699-50.65 50.651-50.65h94.36c35.088 0 40.99-11.505 40.99-23.731v-31.422-0.563c0-27.952 22.699-50.651 50.651-50.651h94.36c35.088 0 40.99-11.505 40.99-23.731v-31.422-0.563c0-27.952 22.699-50.651 50.651-50.651h94.36c30.663 0 39.037-8.785 40.661-19.16v60.525z" fill="#ffce35" fill-opacity=".8"/>
<path d="m1451.5 704.42c-9.294 10.962-23.164 17.924-38.644 17.924h-94.361c-35.597 0-40.989 12.979-40.989 23.731v31.422 0.563c0 27.952-22.7 50.651-50.651 50.651h-94.361c-35.597 0-40.989 12.978-40.989 23.731v31.422 0.563c0 27.952-22.7 50.651-50.651 50.651h-94.361c-35.597 0-40.989 12.978-40.989 23.73h-12.006v-31.422-0.563c0-27.951 22.699-50.65 50.65-50.65h94.361c35.088 0 40.989-11.505 40.989-23.731v-31.422-0.563c0-27.952 22.699-50.651 50.651-50.651h94.361c35.088 0 40.989-11.505 40.989-23.731v-31.422-0.563c0-27.952 22.699-50.651 50.651-50.651h94.361c35.088 0 40.989-11.504 40.989-23.73v64.711z" fill="#fff" fill-opacity=".35"/>
<path d="m985.14 165.81c-9.291 10.74-23.017 17.54-38.316 17.54h-94.361c-35.597 0-40.989 12.979-40.989 23.731v31.422 0.563c0 27.952-22.699 50.651-50.651 50.651h-94.361c-35.597 0-40.989 12.978-40.989 23.731v31.422 0.563c0 27.952-22.699 50.651-50.651 50.651h-94.361c-35.597 0-40.989 12.978-40.989 23.73h-12.006v-31.422-0.563c0-27.951 22.699-50.65 50.651-50.65h94.36c35.088 0 40.99-11.505 40.99-23.731v-31.422-0.563c0-27.952 22.699-50.651 50.65-50.651h94.361c35.088 0 40.99-11.505 40.99-23.731v-31.422-0.563c0-27.952 22.699-50.651 50.65-50.651h94.361c30.662 0 39.036-8.785 40.661-19.16v60.525z" fill="#ffce35" fill-opacity=".8"/>
<path d="m839.31 165.42c-9.294 10.962-23.164 17.924-38.645 17.924h-94.36c-35.597 0-40.99 12.979-40.99 23.731v31.422 0.563c0 27.952-22.699 50.651-50.651 50.651h-94.36c-35.597 0-40.99 12.978-40.99 23.731v31.422 0.563c0 27.952-22.699 50.651-50.65 50.651h-94.361c-35.597 0-40.99 12.978-40.99 23.73h-12.006v-31.422-0.563c0-27.951 22.699-50.65 50.651-50.65h94.361c35.088 0 40.989-11.505 40.989-23.731v-31.422-0.563c0-27.952 22.699-50.651 50.651-50.651h94.361c35.088 0 40.989-11.505 40.989-23.731v-31.422-0.563c0-27.952 22.699-50.651 50.651-50.651h94.361c35.088 0 40.989-11.504 40.989-23.73v64.711z" fill="#fff" fill-opacity=".35"/>
</g>
</svg>