<?xml version="1.0" encoding="UTF-8"?>
<svg style="isolation:isolate" viewBox="0 0 500 75" xmlns="http://www.w3.org/2000/svg">
<path d="m257.47 20.014h3.281c0.181 3.194 2.429 5.151 6.478 5.151 4.092 0 6.295-1.463 6.295-4.499 0-2.496-1.799-3.598-4.586-4.182l-3.756-0.811c-4.453-0.943-6.837-3.013-6.837-6.947 0-4.34 3.239-7.063 8.929-7.063 5.51 0 9.13 3.081 9.153 7.648h-3.284c-0.158-2.79-1.98-4.702-5.959-4.702-3.307 0-5.509 1.214-5.509 4.117 0 2.09 1.663 3.237 4.385 3.821l3.485 0.743c4.79 0.991 7.309 3.465 7.309 7.399 0 4.588-3.689 7.399-9.625 7.399-6.252 0-9.604-3.217-9.759-8.074zm26.557-18.012h16.551v2.946h-13.357v8.051h12.211v2.945h-12.211v8.905h13.357v2.902h-16.551v-25.749zm23.905 0h3.778l8.681 15.696h0.156l8.681-15.696h3.71v25.749h-3.058v-20.646h-0.158l-9.108 16.238h-0.381l-9.107-16.348h-0.158v20.756h-3.036v-25.749zm33.823 0h9.489c5.263 0 8.5 3.35 8.5 8.117 0 4.925-3.305 8.276-8.5 8.276h-6.298v9.334h-3.191v-25.727zm9.084 13.471c3.576 0 5.6-1.867 5.6-5.332 0-3.304-2.137-5.216-5.6-5.216h-5.893v10.548h5.893zm35.959 11.894v0.362h-3.485l-6.77-10.189h-6.252v10.189h-3.194v-25.727h10.187c5.263 0 8.164 3.35 8.164 7.713 0 3.823-2.203 6.475-5.555 7.421l6.905 10.231zm-16.507-12.75h6.814c3.237 0 4.993-1.776 4.993-4.857 0-3.013-1.776-4.812-4.993-4.812h-6.814v9.669zm22.892-12.615h16.551v2.946h-13.335v8.051h12.211v2.945h-12.211v8.905h13.335v2.902h-16.551v-25.749zm-113.56 68.722v0.361h-3.418l-2.428-6.723h-11.245l-2.452 6.723h-3.349v-0.361l9.444-25.365h3.936l9.512 25.365zm-6.88-9.243l-4.521-12.569h-0.158l-4.519 12.569h9.198zm45.919 9.243v0.361h-3.418l-2.428-6.723h-11.245l-2.429 6.723h-3.349v-0.361l9.443-25.365h3.937l9.489 25.365zm-6.88-9.243l-4.521-12.569h-0.158l-4.519 12.569h9.198zm13.132-16.145h9.491c5.261 0 8.5 3.35 8.5 8.119 0 4.923-3.306 8.275-8.5 8.275h-6.297v9.333h-3.194v-25.727zm9.085 13.471c3.575 0 5.6-1.867 5.6-5.332 0-3.304-2.136-5.216-5.6-5.216h-5.891v10.548h5.891zm35.958 11.917v0.361h-3.485l-6.769-10.188h-6.25v10.188h-3.194v-25.749h10.186c5.262 0 8.164 3.35 8.164 7.713 0 3.823-2.205 6.478-5.555 7.421l6.903 10.254zm-16.504-12.773h6.812c3.239 0 4.992-1.776 4.992-4.857 0-3.013-1.776-4.812-4.992-4.812h-6.812v9.669zm22.891-12.615h16.552v2.946h-13.335v8.051h12.211v2.946h-12.211v8.904h13.335v2.902h-16.552v-25.749zm23.905 0h3.508l13.157 20.486h0.155v-20.486h3.149v25.749h-3.53l-13.154-20.374h-0.158v20.374h-3.127v-25.749zm28.785 0h8.523c7.331 0 11.469 5.149 11.469 12.864 0 7.173-3.779 12.863-11.469 12.863h-8.523v-25.727zm8.207 22.847c5.916 0 8.5-4.587 8.5-9.961 0-5.331-2.561-9.94-8.5-9.94h-4.99v19.901h4.99zm19.161-22.847h16.551v2.946h-13.357v8.051h12.211v2.946h-12.211v8.904h13.357v2.902h-16.551v-25.749zm43.605 25.388v0.361h-3.487l-6.769-10.188h-6.25v10.188h-3.194v-25.749h10.186c5.264 0 8.164 3.35 8.164 7.713 0 3.823-2.205 6.478-5.555 7.421l6.905 10.254zm-16.506-12.773h6.814c3.237 0 4.99-1.776 4.99-4.857 0-3.013-1.776-4.812-4.99-4.812h-6.814v9.669zm-315.53-2.338c0 10.322 8.32 18.687 18.666 18.687h0.201c7.085 0 14.191-3.104 19.475-7.532v5.868h27.999v-4.498h-1.059c-2.877 0-5.193-2.316-5.193-5.194v-51.588c0-2.878 2.316-5.194 5.193-5.194h1.059v-4.521h-27.999v51.184c0 7.555-16.484 11.559-16.484-0.697v-33.261c0-10.389-8.41-18.799-18.8-18.799h-0.203-11.604v4.453c4.318 0.921 8.794 6.97 8.794 15.224l-0.045 35.868zm-101.62-36.859c0-10.321-8.32-18.686-18.664-18.686h-0.203c-7.083 0-14.189 3.103-19.475 7.534v-5.961h-27.997v4.521h1.056c2.88 0 5.196 2.316 5.196 5.194v51.588c0 2.878-2.316 5.194-5.196 5.194h-1.056v4.521h27.997v-51.092c0-7.557 16.484-11.559 16.484 0.697v33.259c0 10.389 8.432 18.799 18.799 18.799h0.204 11.603v-4.451c-4.318-0.923-8.793-6.972-8.793-15.224l0.045-35.893zm84.398 35.667v-29.796c0-10.367-6.566-19.768-16.461-22.894-3.553-1.124-7.331-1.731-11.266-1.731-8.254 0-15.876 2.7-22.038 7.263 0.045 0.068 0.045 0.068 0 0-3.51-4.43-8.907-7.263-14.978-7.263h-0.224-11.829v4.521c4.385 0.943 8.927 7.083 8.927 15.448v29.798c0 10.39 6.568 19.766 16.461 22.892 3.555 1.124 7.331 1.731 11.245 1.731 8.254 0 15.899-2.72 22.061-7.263 3.507 4.408 8.881 7.263 14.953 7.263h0.226 11.829v-4.519c-4.363-0.946-8.906-7.085-8.906-15.45zm-20.712 8.343c-1.573 0.406-3.238 0.629-4.947 0.629-11.019 0-19.969-7.15-19.969-18.17v-26.13c0-2.654-0.539-5.173-1.53-7.489 1.575-0.404 3.239-0.63 4.947-0.63 11.02 0 19.971 7.151 19.971 18.17v26.133c0 2.674 0.562 5.216 1.551 7.509 0 0 0-0.022-0.023-0.022z" fill="#fff" fill-rule="evenodd"/>
</svg>
